# Blender 4.2.3 LTS
# www.blender.org
mtllib PEDESTAL.mtl
g Cylinder.002_Cylinder.003
v 0.000000 1.676846 0.000000
v 0.000000 1.676846 -1.257583
v 0.000000 1.468265 -1.257583
v 0.481256 1.676846 -1.161855
v 0.481256 1.468265 -1.161855
v 0.889245 1.676846 -0.889245
v 0.889245 1.468265 -0.889245
v 1.161855 1.676846 -0.481256
v 1.161855 1.468265 -0.481256
v 1.257583 1.676846 0.000000
v 1.257583 1.468265 0.000000
v 1.161855 1.676846 0.481256
v 1.161855 1.468265 0.481256
v 0.889245 1.676846 0.889245
v 0.889245 1.468265 0.889245
v 0.481256 1.676846 1.161855
v 0.481256 1.468265 1.161855
v 0.000000 1.676846 1.257583
v 0.000000 1.468265 1.257583
v -0.481256 1.676846 1.161855
v -0.481256 1.468265 1.161855
v -0.889245 1.676846 0.889245
v -0.889245 1.468265 0.889245
v -1.161855 1.676846 0.481256
v -1.161855 1.468265 0.481256
v -1.257583 1.676846 -0.000000
v -1.257583 1.468265 -0.000000
v -1.161855 1.676846 -0.481256
v -1.161855 1.468265 -0.481256
v -0.889245 1.676846 -0.889245
v -0.889245 1.468265 -0.889245
v -0.481255 1.676846 -1.161855
v -0.481255 1.468265 -1.161855
v 0.000000 0.980685 -1.278042
v 0.599666 1.018981 -1.447722
v 0.903712 0.980685 -0.903712
v 1.447722 1.018981 -0.599666
v 1.278041 0.980685 0.000000
v 1.447722 1.018981 0.599666
v 0.903712 0.980685 0.903712
v 0.599666 1.018981 1.447722
v 0.000000 0.980685 1.278042
v -0.599666 1.018981 1.447722
v -0.903712 0.980685 0.903712
v -1.447722 1.018981 0.599666
v -1.278042 0.980685 -0.000000
v -1.447722 1.018981 -0.599666
v -0.903712 0.980685 -0.903712
v -0.599665 1.018981 -1.447722
v 0.000000 0.641929 -1.342250
v 0.629793 0.603633 -1.520455
v -0.886104 0.130395 -0.886104
v 1.520455 0.603633 -0.629793
v -1.157750 0.130395 -0.479556
v -1.253140 0.130395 -0.000000
v 0.949114 0.641929 0.949114
v -1.157750 0.130395 0.479556
v -0.886104 0.130395 0.886104
v -0.629793 0.603633 1.520456
v -0.949114 0.641929 0.949115
v -0.479556 0.130395 1.157750
v 0.000000 0.130395 1.253140
v 0.479556 0.130395 1.157750
v 0.886104 0.130395 0.886104
v 1.157750 0.130395 0.479556
v 1.253140 0.130395 0.000000
v 1.157750 0.130395 -0.479556
v 0.949114 0.641929 -0.949114
v 0.886104 0.130395 -0.886104
v 0.479556 0.130395 -1.157750
v 1.520455 0.603633 0.629793
v 0.000000 0.130395 -1.253140
v 0.629793 0.603633 1.520455
v 0.000000 0.130395 0.000000
v -0.661873 0.541218 1.597904
v -1.597904 0.541218 -0.661874
v 0.661874 0.541218 -1.597904
v 1.222983 0.541218 -1.222983
v -1.520455 0.603633 -0.629794
v 1.597904 0.541218 0.661874
v 1.222983 0.541218 1.222983
v -1.222983 0.541218 1.222983
v 1.597904 0.541218 -0.661874
v 0.661874 0.541218 1.597904
v -0.000000 0.541218 -1.729559
v 1.342250 0.641929 0.000000
v 0.000000 0.541218 1.729559
v -1.729559 0.541218 -0.000000
v -1.222982 0.541218 -1.222983
v 0.000000 0.641929 1.342250
v -1.597904 0.541218 0.661874
v -0.661873 0.541218 -1.597904
v -1.520456 0.603633 0.629794
v -1.342250 0.641929 -0.000000
v 1.729559 0.541218 0.000000
v -0.949114 0.641929 -0.949115
v -0.629793 0.603633 -1.520456
v -0.000000 1.112655 -1.639951
v -1.515117 1.112655 -0.627582
v -1.159620 1.112655 1.159621
v 0.627582 1.112655 1.515117
v 1.639951 1.112655 0.000000
v 0.627582 1.112655 -1.515117
v -0.627581 1.112655 -1.515118
v -1.159620 1.112655 -1.159621
v -1.639951 1.112655 -0.000000
v -1.515117 1.112655 0.627582
v -0.627582 1.112655 1.515118
v 0.000000 1.112655 1.639951
v 1.159621 1.112655 1.159621
v 1.515117 1.112655 0.627582
v 1.515117 1.112655 -0.627582
v 1.159621 1.112655 -1.159621
v -0.479555 0.130395 -1.157751
vn -0.0000 1.0000 -0.0000
vn -0.4647 -0.8854 -0.0106
vn 0.1951 -0.0000 -0.9808
vn -0.3210 -0.8854 0.3361
vn 0.5556 -0.0000 -0.8315
vn 0.3211 -0.8854 0.3361
vn 0.8315 -0.0000 -0.5556
vn 0.4647 -0.8854 -0.0106
vn 0.9808 -0.0000 -0.1951
vn 0.0106 -0.8854 -0.4647
vn 0.9808 -0.0000 0.1951
vn -0.0106 -0.8854 -0.4647
vn 0.8315 -0.0000 0.5556
vn -0.3361 -0.8854 -0.3210
vn 0.5556 -0.0000 0.8315
vn -0.3361 -0.8854 0.3210
vn 0.1951 -0.0000 0.9808
vn 0.0106 -0.8854 0.4647
vn -0.1951 -0.0000 0.9808
vn 0.4647 -0.8854 0.0106
vn -0.5556 -0.0000 0.8315
vn 0.3210 -0.8854 -0.3361
vn -0.8315 -0.0000 0.5556
vn -0.3210 -0.8854 -0.3361
vn -0.9808 -0.0000 0.1951
vn -0.4647 -0.8854 0.0106
vn -0.9808 -0.0000 -0.1951
vn -0.0106 -0.8854 0.4647
vn -0.8315 -0.0000 -0.5556
vn 0.3361 -0.8854 0.3211
vn -0.5556 -0.0000 -0.8315
vn 0.3361 -0.8854 -0.3210
vn -0.1951 -0.0000 -0.9808
vn 0.8614 0.1617 0.4815
vn 0.4814 0.1617 -0.8614
vn -0.4814 0.1617 -0.8614
vn -0.8614 0.1617 0.4815
vn 0.4814 0.1617 0.8614
vn 0.8614 0.1617 -0.4815
vn -0.9496 0.1617 0.2687
vn 0.2687 0.1617 0.9496
vn 0.9496 0.1617 -0.2687
vn -0.2687 0.1617 -0.9496
vn -0.9496 0.1617 -0.2687
vn 0.2687 0.1617 -0.9496
vn -0.2687 0.1617 0.9496
vn 0.9496 0.1617 0.2687
vn -0.8614 0.1617 -0.4815
vn -0.4814 0.1617 0.8614
vn -0.0000 -1.0000 -0.0000
vn 0.3302 0.9438 0.0161
vn 0.0161 0.9438 -0.3302
vn -0.3302 0.9438 0.0161
vn -0.0161 0.9438 -0.3302
vn 0.0161 0.9438 0.3302
vn 0.3302 0.9438 -0.0161
vn -0.2221 0.9438 -0.2448
vn -0.2448 0.9438 0.2221
vn 0.2221 0.9438 0.2448
vn 0.2448 0.9438 -0.2221
vn -0.2448 0.9438 -0.2221
vn -0.2221 0.9438 0.2448
vn 0.2448 0.9438 0.2221
vn 0.2221 0.9438 -0.2448
vn -0.3302 0.9438 -0.0161
vn -0.0161 0.9438 0.3302
vn 0.5490 -0.7510 0.3668
vn 0.3668 -0.7510 -0.5490
vn -0.6476 -0.7510 -0.1288
vn -0.1288 -0.7510 0.6476
vn 0.6476 -0.7510 0.1288
vn -0.1288 -0.7510 -0.6476
vn -0.6476 -0.7510 0.1288
vn 0.1288 -0.7510 0.6476
vn 0.6476 -0.7510 -0.1288
vn -0.3668 -0.7510 -0.5490
vn -0.5490 -0.7510 0.3668
vn 0.3668 -0.7510 0.5490
vn 0.5490 -0.7510 -0.3668
vn -0.5490 -0.7510 -0.3668
vn -0.3668 -0.7510 0.5490
vn 0.5721 0.7256 -0.3823
vn 0.5721 0.7256 0.3823
vn -0.1342 0.7256 0.6749
vn -0.6749 0.7256 0.1342
vn -0.3823 0.7256 -0.5721
vn 0.3823 0.7256 -0.5721
vn 0.6749 0.7256 0.1342
vn 0.1342 0.7256 0.6749
vn -0.5721 0.7256 0.3823
vn -0.5721 0.7256 -0.3823
vn -0.1342 0.7256 -0.6749
vn 0.1342 0.7256 -0.6749
vn 0.6749 0.7256 -0.1342
vn 0.3823 0.7256 0.5721
vn -0.3823 0.7256 0.5721
vn -0.6749 0.7256 -0.1342
vn 0.1288 -0.7510 -0.6476
vt 0.877540 0.073047
vt 0.895100 0.138131
vt 0.859981 0.138131
vt 0.179648 0.632981
vt 0.138136 0.632887
vt 0.132074 0.549006
vt 0.176624 0.573392
vt 0.520500 0.991965
vt 0.520637 0.859249
vt 0.552470 0.859321
vt 0.552333 0.992037
vt 0.827535 0.128222
vt 0.049353 0.632887
vt 0.015598 0.632981
vt 0.019871 0.573392
vt 0.062884 0.549006
vt 0.231917 0.992037
vt 0.232054 0.859321
vt 0.257939 0.859249
vt 0.257802 0.991965
vt 0.802703 0.109914
vt 0.676229 0.632855
vt 0.633199 0.632887
vt 0.646731 0.549006
vt 0.677087 0.573271
vt 0.290936 0.859224
vt 0.290798 0.991940
vt 0.789263 0.085993
vt 0.332752 0.632887
vt 0.286998 0.632855
vt 0.287856 0.573271
vt 0.326690 0.549006
vt 0.326022 0.859249
vt 0.325884 0.991965
vt 0.789263 0.060101
vt 0.568879 0.632981
vt 0.527367 0.632887
vt 0.521306 0.549006
vt 0.565855 0.573392
vt 0.357855 0.859321
vt 0.357717 0.992037
vt 0.802703 0.036180
vt 0.481614 0.632854
vt 0.482471 0.573271
vt 0.621148 0.992037
vt 0.621285 0.859321
vt 0.647170 0.859249
vt 0.647033 0.991965
vt 0.827535 0.017871
vt 0.438584 0.632887
vt 0.404829 0.632981
vt 0.409102 0.573392
vt 0.452115 0.549006
vt 0.680167 0.859224
vt 0.680030 0.991940
vt 0.859981 0.007963
vt 0.092382 0.632855
vt 0.093240 0.573271
vt 0.715253 0.859249
vt 0.715115 0.991965
vt 0.895099 0.007963
vt 0.721983 0.632887
vt 0.715921 0.549006
vt 0.747086 0.859321
vt 0.746949 0.992037
vt 0.927545 0.017871
vt 0.374264 0.632981
vt 0.371240 0.573392
vt 0.037301 0.992037
vt 0.037438 0.859321
vt 0.063323 0.859249
vt 0.063186 0.991965
vt 0.952378 0.036180
vt 0.243968 0.632887
vt 0.210214 0.632981
vt 0.214487 0.573392
vt 0.257500 0.549006
vt 0.096320 0.859224
vt 0.096183 0.991940
vt 0.965817 0.060101
vt 0.131406 0.859249
vt 0.131269 0.991965
vt 0.965817 0.085993
vt 0.163239 0.859321
vt 0.163102 0.992037
vt 0.952378 0.109914
vt 0.763495 0.632981
vt 0.760471 0.573392
vt 0.426532 0.992037
vt 0.426670 0.859321
vt 0.452554 0.859249
vt 0.452417 0.991965
vt 0.927545 0.128222
vt 0.599445 0.632981
vt 0.603718 0.573392
vt 0.485551 0.859224
vt 0.485414 0.991940
vt 0.989199 0.564004
vt 0.956030 0.539903
vt 0.955416 0.324331
vt 0.989199 0.299691
vt 0.878430 0.564004
vt 0.845261 0.539903
vt 0.844648 0.324331
vt 0.878430 0.299691
vt 0.404831 0.309099
vt 0.449953 0.333446
vt 0.015599 0.309099
vt 0.060722 0.333446
vt 0.599446 0.309099
vt 0.644569 0.333446
vt 0.210215 0.309099
vt 0.255337 0.333446
vt 0.133388 0.333446
vt 0.180228 0.309099
vt 0.717235 0.333446
vt 0.764074 0.309099
vt 0.328004 0.333446
vt 0.374843 0.309099
vt 0.522619 0.333446
vt 0.569459 0.309099
vt 0.092654 0.308972
vt 0.481886 0.308972
vt 0.676501 0.308972
vt 0.287270 0.308972
vt 0.933815 0.564004
vt 0.900646 0.539903
vt 0.900032 0.324331
vt 0.933815 0.299691
vt 0.823046 0.564004
vt 0.789877 0.539903
vt 0.789263 0.324331
vt 0.823046 0.299691
vt 0.877228 0.218911
vt 0.965193 0.231811
vt 0.951802 0.255647
vt 0.927057 0.273891
vt 0.894726 0.283765
vt 0.859731 0.283765
vt 0.827400 0.273891
vt 0.802655 0.255647
vt 0.789263 0.231811
vt 0.789263 0.206010
vt 0.802655 0.182174
vt 0.827400 0.163930
vt 0.859731 0.154057
vt 0.894726 0.154057
vt 0.927057 0.163930
vt 0.951802 0.182174
vt 0.965193 0.206010
vt 0.334650 0.269271
vt 0.378431 0.269370
vt 0.529266 0.269271
vt 0.573046 0.269370
vt 0.091781 0.269236
vt 0.140035 0.269271
vt 0.481012 0.269236
vt 0.675628 0.269237
vt 0.723881 0.269271
vt 0.286397 0.269236
vt 0.435631 0.269271
vt 0.046400 0.269271
vt 0.630247 0.269271
vt 0.241016 0.269271
vt 0.400032 0.269370
vt 0.010801 0.269370
vt 0.594648 0.269370
vt 0.205416 0.269370
vt 0.183815 0.269370
vt 0.767662 0.269370
vt 0.622423 0.008060
vt 0.648216 0.007988
vt 0.233191 0.008060
vt 0.258984 0.007988
vt 0.132211 0.007988
vt 0.163932 0.008060
vt 0.716058 0.007988
vt 0.747779 0.008060
vt 0.326827 0.007988
vt 0.358547 0.008060
vt 0.486481 0.007963
vt 0.521442 0.007988
vt 0.097249 0.007963
vt 0.681096 0.007963
vt 0.291865 0.007963
vt 0.453600 0.007988
vt 0.064369 0.007988
vt 0.427807 0.008060
vt 0.038576 0.008060
vt 0.553163 0.008060
s 0
g Cylinder.002_PEDESTAL
usemtl PEDESTAL
f 1/1/1 4/3/1 2/2/1
f 99/4/2 47/7/2 46/6/2 106/5/2
f 2/8/3 4/11/3 5/10/3 3/9/3
f 1/1/1 6/12/1 4/3/1
f 100/13/4 44/16/4 43/15/4 108/14/4
f 4/17/5 6/20/5 7/19/5 5/18/5
f 1/1/1 8/21/1 6/12/1
f 101/22/6 41/25/6 40/24/6 110/23/6
f 6/20/7 8/27/7 9/26/7 7/19/7
f 1/1/1 10/28/1 8/21/1
f 102/29/8 38/32/8 37/31/8 112/30/8
f 8/27/9 10/34/9 11/33/9 9/26/9
f 1/1/1 12/35/1 10/28/1
f 103/36/10 35/39/10 34/38/10 98/37/10
f 10/34/11 12/41/11 13/40/11 11/33/11
f 1/1/1 14/42/1 12/35/1
f 98/37/12 34/38/12 49/44/12 104/43/12
f 12/45/13 14/48/13 15/47/13 13/46/13
f 1/1/1 16/49/1 14/42/1
f 105/50/14 48/53/14 47/52/14 99/51/14
f 14/48/15 16/55/15 17/54/15 15/47/15
f 1/1/1 18/56/1 16/49/1
f 107/57/16 45/58/16 44/16/16 100/13/16
f 16/55/17 18/60/17 19/59/17 17/54/17
f 1/1/1 20/61/1 18/56/1
f 109/62/18 42/63/18 41/25/18 101/22/18
f 18/60/19 20/65/19 21/64/19 19/59/19
f 1/1/1 22/66/1 20/61/1
f 111/67/20 39/68/20 38/32/20 102/29/20
f 20/69/21 22/72/21 23/71/21 21/70/21
f 1/1/1 24/73/1 22/66/1
f 113/74/22 36/77/22 35/76/22 103/75/22
f 22/72/23 24/79/23 25/78/23 23/71/23
f 1/1/1 26/80/1 24/73/1
f 104/43/24 49/44/24 48/53/24 105/50/24
f 24/79/25 26/82/25 27/81/25 25/78/25
f 1/1/1 28/83/1 26/80/1
f 106/5/26 46/6/26 45/58/26 107/57/26
f 26/82/27 28/85/27 29/84/27 27/81/27
f 1/1/1 30/86/1 28/83/1
f 108/87/28 43/88/28 42/63/28 109/62/28
f 28/89/29 30/92/29 31/91/29 29/90/29
f 1/1/1 32/93/1 30/86/1
f 110/23/30 40/24/30 39/95/30 111/94/30
f 30/92/31 32/97/31 33/96/31 31/91/31
f 1/1/1 2/2/1 32/93/1
f 112/30/32 37/31/32 36/77/32 113/74/32
f 32/97/33 2/8/33 3/9/33 33/96/33
f 41/98/34 73/101/34 56/100/34 40/99/34
f 37/102/35 53/105/35 68/104/35 36/103/35
f 48/53/36 96/107/36 79/106/36 47/52/36
f 44/16/37 60/109/37 59/108/37 43/15/37
f 40/24/38 56/111/38 71/110/38 39/95/38
f 36/77/39 68/113/39 51/112/39 35/76/39
f 47/7/40 79/115/40 94/114/40 46/6/40
f 43/88/41 59/117/41 90/116/41 42/63/41
f 39/68/42 71/119/42 86/118/42 38/32/42
f 35/39/43 51/121/43 50/120/43 34/38/43
f 46/6/44 94/114/44 93/122/44 45/58/44
f 34/38/45 50/120/45 97/123/45 49/44/45
f 42/63/46 90/116/46 73/124/46 41/25/46
f 38/32/47 86/118/47 53/125/47 37/31/47
f 49/126/48 97/129/48 96/128/48 48/127/48
f 45/130/49 93/133/49 60/132/49 44/131/49
f 74/134/50 114/136/50 72/135/50
f 74/134/50 52/137/50 114/136/50
f 74/134/50 54/138/50 52/137/50
f 74/134/50 55/139/50 54/138/50
f 74/134/50 57/140/50 55/139/50
f 74/134/50 58/141/50 57/140/50
f 74/134/50 61/142/50 58/141/50
f 74/134/50 62/143/50 61/142/50
f 74/134/50 63/144/50 62/143/50
f 74/134/50 64/145/50 63/144/50
f 74/134/50 65/146/50 64/145/50
f 74/134/50 66/147/50 65/146/50
f 74/134/50 67/148/50 66/147/50
f 74/134/50 69/149/50 67/148/50
f 74/134/50 70/150/50 69/149/50
f 74/134/50 72/135/50 70/150/50
f 71/119/51 80/152/51 95/151/51 86/118/51
f 51/121/52 77/154/52 85/153/52 50/120/52
f 94/114/53 88/156/53 91/155/53 93/122/53
f 50/120/54 85/153/54 92/157/54 97/123/54
f 90/116/55 87/159/55 84/158/55 73/124/55
f 86/118/56 95/151/56 83/160/56 53/125/56
f 97/123/57 92/157/57 89/161/57 96/107/57
f 93/122/58 91/155/58 82/162/58 60/109/58
f 73/124/59 84/158/59 81/163/59 56/111/59
f 53/125/60 83/160/60 78/164/60 68/113/60
f 96/107/61 89/161/61 76/165/61 79/106/61
f 60/109/62 82/162/62 75/166/62 59/108/62
f 56/111/63 81/163/63 80/167/63 71/110/63
f 68/113/64 78/164/64 77/168/64 51/112/64
f 79/115/65 76/169/65 88/156/65 94/114/65
f 59/117/66 75/170/66 87/159/66 90/116/66
f 65/171/67 80/167/67 81/163/67 64/172/67
f 70/173/68 77/168/68 78/164/68 69/174/68
f 88/156/69 76/169/69 54/176/69 55/175/69
f 87/159/70 75/170/70 61/178/70 62/177/70
f 95/151/71 80/152/71 65/180/71 66/179/71
f 92/157/72 85/153/72 72/182/72 114/181/72
f 91/155/73 88/156/73 55/175/73 57/183/73
f 84/158/74 87/159/74 62/177/74 63/184/74
f 83/160/75 95/151/75 66/179/75 67/185/75
f 89/161/76 92/157/76 114/181/76 52/186/76
f 82/162/77 91/155/77 57/183/77 58/187/77
f 81/163/78 84/158/78 63/184/78 64/172/78
f 78/164/79 83/160/79 67/185/79 69/174/79
f 76/165/80 89/161/80 52/186/80 54/188/80
f 75/166/81 82/162/81 58/187/81 61/189/81
f 9/26/82 112/30/82 113/74/82 7/19/82
f 15/47/83 110/23/83 111/94/83 13/46/83
f 21/64/84 108/87/84 109/62/84 19/59/84
f 27/81/85 106/5/85 107/57/85 25/78/85
f 33/96/86 104/43/86 105/50/86 31/91/86
f 7/19/87 113/74/87 103/75/87 5/18/87
f 13/40/88 111/67/88 102/29/88 11/33/88
f 19/59/89 109/62/89 101/22/89 17/54/89
f 25/78/90 107/57/90 100/13/90 23/71/90
f 31/91/91 105/50/91 99/51/91 29/90/91
f 3/9/92 98/37/92 104/43/92 33/96/92
f 5/10/93 103/36/93 98/37/93 3/9/93
f 11/33/94 102/29/94 112/30/94 9/26/94
f 17/54/95 101/22/95 110/23/95 15/47/95
f 23/71/96 100/13/96 108/14/96 21/70/96
f 29/84/97 99/4/97 106/5/97 27/81/97
f 85/153/98 77/154/98 70/190/98 72/182/98
